<svg xmlns="http://www.w3.org/2000/svg" viewBox="0 0 520 560" width="64" height="64" fill="none">
  <rect width="520" height="560" rx="80" fill="#050505"/>
  <!-- Top M-shape -->
  <path d="M 115 278 C 103 205 118 148 165 122 C 202 102 235 140 258 168 C 278 142 318 105 368 126 C 425 150 440 212 418 278"
    stroke="#D4AF37" stroke-width="26" stroke-linecap="round" stroke-linejoin="round" fill="none"/>
  <!-- First horizontal line -->
  <path d="M 80 313 C 182 296 335 296 448 313"
    stroke="#D4AF37" stroke-width="18" stroke-linecap="round" fill="none"/>
  <!-- Second horizontal line -->
  <path d="M 72 356 C 178 338 322 338 438 356"
    stroke="#D4AF37" stroke-width="12" stroke-linecap="round" fill="none"/>
  <!-- C-curve root -->
  <path d="M 100 392 C 55 448 58 506 108 528 C 168 554 252 540 295 507 C 322 488 328 462 312 440"
    stroke="#D4AF37" stroke-width="26" stroke-linecap="round" fill="none"/>
</svg>
